<svg width="34" height="28" viewBox="0 0 34 28" fill="none" xmlns="http://www.w3.org/2000/svg">
<path d="M2.85833 15.9996L26.3032 15.9996L18.4133 23.9008C17.6326 24.6814 17.6355 25.9485 18.4161 26.7292C19.1967 27.5098 20.4625 27.5084 21.2431 26.7278L21.2445 26.7264L32.479 15.4749C33.2554 14.6956 33.2569 13.4384 32.4861 12.6564L21.2516 1.28042C20.4766 0.494115 19.2095 0.485631 18.4232 1.26345L18.4147 1.27193C17.6369 2.04975 17.634 3.3084 18.4062 4.09188L26.2155 12.0002L2.85833 12.0002C2.30679 12.0002 1.80616 12.2236 1.44412 12.5856C1.08208 12.9477 0.858636 13.4483 0.858636 13.9999C0.858636 15.1058 1.75242 15.9996 2.85833 15.9996Z" fill="white"/>
</svg>
