<svg width="26" height="24" viewBox="0 0 26 24" fill="none" xmlns="http://www.w3.org/2000/svg">
<path fill-rule="evenodd" clip-rule="evenodd" d="M23.3151 4C24.2514 4 25.1045 4.472 25.5967 5.264C26.089 6.056 26.1333 7.02533 25.7148 7.85867L21.3206 16.596C21.0925 17.048 20.6284 17.3333 20.1201 17.3333H8.04802C7.44308 17.3333 6.91325 16.9307 6.75363 16.3507L2.99923 2.66667H1.34134C0.599578 2.66667 0 2.06933 0 1.33333C0 0.597333 0.599578 0 1.34134 0H4.02401C4.62895 0 5.15878 0.402667 5.3184 0.982667L6.14601 4H23.3151ZM19.2911 14.6667H9.0728L6.87703 6.66667H23.3151L19.2911 14.6667ZM7.37735 24C8.48798 24 9.38936 23.1053 9.38936 22C9.38936 20.8947 8.48798 20 7.37735 20C6.26673 20 5.36535 20.8947 5.36535 22C5.36535 23.1053 6.26673 24 7.37735 24ZM20.7907 24C21.9014 24 22.8027 23.1053 22.8027 22C22.8027 20.8947 21.9014 20 20.7907 20C19.6801 20 18.7787 20.8947 18.7787 22C18.7787 23.1053 19.6801 24 20.7907 24Z" fill="black"/>
</svg>
