<svg width="20" height="17" viewBox="0 0 20 17" fill="none" xmlns="http://www.w3.org/2000/svg">
<path d="M9.99994 17C9.73399 17 9.48005 16.895 9.29208 16.706L1.52669 8.926C-0.508895 6.886 -0.508895 3.567 1.52669 1.527C2.50948 0.543 3.82221 0 5.22092 0C6.61963 0 7.93236 0.543 8.91516 1.527L9.99994 2.614L11.0837 1.528C12.0675 0.543 13.3802 0 14.779 0C16.1777 0 17.4904 0.543 18.4732 1.527C20.5088 3.567 20.5088 6.886 18.4742 8.926L10.7078 16.707C10.5198 16.895 10.2659 17 9.99994 17Z" fill="#FF4401"/>
</svg>
