<svg width="19" height="24" viewBox="0 0 19 24" fill="none" xmlns="http://www.w3.org/2000/svg">
<path fill-rule="evenodd" clip-rule="evenodd" d="M14.9286 5.33333C14.9286 8.27467 12.4939 10.6667 9.5 10.6667C6.50614 10.6667 4.07143 8.27467 4.07143 5.33333C4.07143 2.392 6.50614 0 9.5 0C12.4939 0 14.9286 2.392 14.9286 5.33333ZM9.5 2.66667C10.9969 2.66667 12.2143 3.86267 12.2143 5.33333C12.2143 6.804 10.9969 8 9.5 8C8.00307 8 6.78571 6.804 6.78571 5.33333C6.78571 3.86267 8.00307 2.66667 9.5 2.66667ZM19 22.6667C19 23.4027 18.3934 24 17.6429 24C16.8924 24 16.2857 23.4027 16.2857 22.6667C16.2857 18.9907 13.2416 16 9.5 16C5.75836 16 2.71429 18.9907 2.71429 22.6667C2.71429 23.4027 2.10764 24 1.35714 24C0.606643 24 0 23.4027 0 22.6667C0 17.52 4.26279 13.3333 9.5 13.3333C14.7372 13.3333 19 17.52 19 22.6667Z" fill="black"/>
</svg>
